mtllib C:/Users/stefa/Documents/github/SmartCardChanger/Software/src/scc/public/SCC-VirmsGroupCarriageTransparent.mtl
s 1
o 
g Group1 
usemtl Translucent_Glass_Gray
v 279.929 102 59.7
v 254.929 97 59.7
v 254.929 102 59.7
vn 0 0 -1
f 1//1 2//1 3//1 
v 283.463 97 59.7
f 2//1 1//1 4//1 
v 281.937 100.233 59.7
f 4//1 1//1 5//1 
v 284.018 98.5521 59.7
f 4//1 5//1 6//1 
v 284.018 96.5521 59.7
f 4//1 6//1 7//1 
v 286.166 94.9591 59.7
f 7//1 6//1 8//1 
v 286.166 96.9591 59.7
f 8//1 6//1 9//1 
v 288.38 93.4572 59.7
f 8//1 9//1 10//1 
v 288.38 95.4572 59.7
f 10//1 9//1 11//1 
v 290.654 92.0491 59.7
f 10//1 11//1 12//1 
v 290.654 94.0491 59.7
f 12//1 11//1 13//1 
v 292.984 90.737 59.7
f 12//1 13//1 14//1 
v 292.984 92.737 59.7
f 14//1 13//1 15//1 
v 295.368 89.5235 59.7
f 14//1 15//1 16//1 
v 295.368 91.5235 59.7
f 16//1 15//1 17//1 
v 297.8 88.4104 59.7
f 16//1 17//1 18//1 
v 297.8 90.4104 59.7
f 18//1 17//1 19//1 
v 300.277 87.3999 59.7
f 18//1 19//1 20//1 
v 300.277 89.3999 59.7
f 20//1 19//1 21//1 
v 302.793 86.4936 59.7
f 20//1 21//1 22//1 
v 302.793 88.4936 59.7
f 22//1 21//1 23//1 
v 305.346 85.6932 59.7
f 22//1 23//1 24//1 
v 305.346 87.6932 59.7
f 24//1 23//1 25//1 
v 307.929 87 59.7
f 24//1 25//1 26//1 
v 306.268 85.4457 59.7
f 24//1 26//1 27//1 
v 306.538 84.2064 59.7
f 27//1 26//1 28//1 
v 307.038 81.3912 59.7
f 28//1 26//1 29//1 
v 307.427 78.5586 59.7
f 29//1 26//1 30//1 
v 307.706 75.713 59.7
f 30//1 26//1 31//1 
v 307.873 72.8587 59.7
f 31//1 26//1 32//1 
v 307.929 70 59.7
f 32//1 26//1 33//1 
v 308.538 84.2064 59.7
f 33//1 26//1 34//1 
v 283.463 43 59.7
v 254.929 38 59.7
v 254.929 43 59.7
f 35//1 36//1 37//1 
v 279.929 38 59.7
f 36//1 35//1 38//1 
v 281.937 39.7666 59.7
f 38//1 35//1 39//1 
v 284.018 41.4479 59.7
f 39//1 35//1 40//1 
v 284.018 43.4479 59.7
f 40//1 35//1 41//1 
v 286.166 43.0409 59.7
f 40//1 41//1 42//1 
v 286.166 45.0409 59.7
f 42//1 41//1 43//1 
v 288.38 44.5428 59.7
f 42//1 43//1 44//1 
v 288.38 46.5428 59.7
f 44//1 43//1 45//1 
v 290.654 45.9509 59.7
f 44//1 45//1 46//1 
v 290.654 47.9509 59.7
f 46//1 45//1 47//1 
v 292.984 47.263 59.7
f 46//1 47//1 48//1 
v 292.984 49.263 59.7
f 48//1 47//1 49//1 
v 295.368 48.4765 59.7
f 48//1 49//1 50//1 
v 295.368 50.4765 59.7
f 50//1 49//1 51//1 
v 297.8 49.5896 59.7
f 50//1 51//1 52//1 
v 297.8 51.5896 59.7
f 52//1 51//1 53//1 
v 300.277 50.6001 59.7
f 52//1 53//1 54//1 
v 300.277 52.6001 59.7
f 54//1 53//1 55//1 
v 302.793 51.5064 59.7
f 54//1 55//1 56//1 
v 302.793 53.5064 59.7
f 56//1 55//1 57//1 
v 305.346 52.3068 59.7
f 56//1 57//1 58//1 
v 305.346 54.3068 59.7
f 58//1 57//1 59//1 
v 306.268 54.5543 59.7
f 58//1 59//1 60//1 
v 307.929 53 59.7
f 58//1 60//1 61//1 
v 306.538 55.7936 59.7
f 61//1 60//1 62//1 
v 307.038 58.6088 59.7
f 61//1 62//1 63//1 
v 307.427 61.4414 59.7
f 61//1 63//1 64//1 
v 307.706 64.287 59.7
f 61//1 64//1 65//1 
v 307.873 67.1413 59.7
f 61//1 65//1 66//1 
f 61//1 66//1 33//1 
v 308.538 55.7936 59.7
f 61//1 33//1 67//1 
f 67//1 33//1 34//1 
v 309.037 81.3912 59.7
f 67//1 34//1 68//1 
v 309.037 58.6088 59.7
f 67//1 68//1 69//1 
v 309.427 78.5586 59.7
f 69//1 68//1 70//1 
v 309.427 61.4414 59.7
f 69//1 70//1 71//1 
v 309.705 75.713 59.7
f 71//1 70//1 72//1 
v 309.705 64.287 59.7
f 71//1 72//1 73//1 
v 309.873 72.8587 59.7
f 73//1 72//1 74//1 
v 309.873 67.1413 59.7
f 73//1 74//1 75//1 
v 309.928 70 59.7
f 75//1 74//1 76//1 
v 295.368 91.5235 65.2
vn 0.435014 0.900424 0
vn 0.397048 0.917798 0
f 77//2 19//3 17//2 
v 297.8 90.4104 65.2
f 19//3 77//2 78//3 
v 284.018 96.5521 63.2
vn -0.612193 -0.790708 0
vn -0.628567 -0.777756 0
f 79//4 4//5 7//4 
v 283.463 97 63.2
f 4//5 79//4 80//5 
v 300.277 89.3999 65.2
vn 0.35839 0.933572 0
vn 0.319107 0.947719 0
f 81//6 23//7 21//6 
v 302.793 88.4936 65.2
f 23//7 81//6 82//7 
v 279.929 102 65.2
vn 0.660484 0.75084 0
vn 0.644666 0.764464 0
f 83//8 5//9 1//8 
v 281.937 100.233 65.2
f 5//9 83//8 84//9 
v 286.166 96.9591 65.2
vn 0.578652 0.815574 0
vn 0.544103 0.839018 0
f 85//10 11//11 9//10 
v 288.38 95.4572 65.2
f 11//11 85//10 86//11 
v 290.654 94.0491 65.2
vn 0.508605 0.861 0
vn 0.472221 0.88148 0
f 87//12 15//13 13//12 
v 292.984 92.737 65.2
f 15//13 87//12 88//13 
f 88//13 17//2 15//13 
f 17//2 88//13 77//2 
f 86//11 13//12 11//11 
f 13//12 86//11 87//12 
vn 0.612193 0.790709 0
f 84//9 6//14 5//9 
v 284.018 98.5521 65.2
f 6//14 84//9 89//14 
f 78//3 21//6 19//3 
f 21//6 78//3 81//6 
vn 0 1 0
f 3//15 83//15 1//15 
v 254.929 102 65.2
f 83//15 3//15 90//15 
f 6//14 85//10 9//10 
f 85//10 6//14 89//14 
vn 0.279268 0.960213 0
f 82//7 25//16 23//7 
v 305.346 87.6932 65.2
f 25//16 82//7 91//16 
vn 0 -1 0
f 80//17 2//17 4//17 
v 257.929 97 61.7
f 2//17 80//17 92//17 
v 257.929 97 63.2
f 92//17 80//17 93//17 
v 254.929 97 61.7
f 94//17 2//17 92//17 
v 309.427 61.4414 63.2
vn 0.996956 -0.0779701 0
vn 0.993155 -0.116807 0
f 73//18 95//19 71//19 
v 309.705 64.287 63.2
f 95//19 73//18 96//18 
v 307.929 53 65.2
vn 0.259161 -0.965834 0
vn 0.279268 -0.960213 0
f 97//20 58//21 61//20 
v 305.346 52.3068 65.2
f 58//21 97//20 98//21 
v 302.793 51.5064 65.2
vn 0.319107 -0.947719 0
vn 0.35839 -0.933572 0
f 99//22 54//23 56//22 
v 300.277 50.6001 65.2
f 54//23 99//22 100//23 
v 290.654 45.9509 65.2
vn 0.508605 -0.861 0
vn 0.544103 -0.839019 0
f 101//24 44//25 46//24 
v 288.38 44.5428 65.2
f 44//25 101//24 102//25 
v 292.984 47.263 65.2
vn 0.472221 -0.88148 0
f 103//26 46//24 48//26 
f 46//24 103//26 101//24 
vn 0.578652 -0.815574 0
f 102//25 42//27 44//25 
v 286.166 43.0409 65.2
f 42//27 102//25 104//27 
vn 0.612192 -0.790709 0
f 104//27 40//28 42//27 
v 284.018 41.4479 65.2
f 40//28 104//27 105//28 
v 309.037 58.6088 63.2
vn 0.987841 -0.155465 0
f 71//19 106//29 69//29 
f 106//29 71//19 95//19 
vn 0.644666 -0.764464 0
f 105//28 39//30 40//28 
v 281.937 39.7666 65.2
f 39//30 105//28 107//30 
vn 0.660484 -0.75084 0
f 107//30 38//31 39//30 
v 279.929 38 65.2
f 38//31 107//30 108//31 
f 98//21 56//22 58//21 
f 56//22 98//21 99//22 
v 297.8 49.5896 65.2
vn 0.397048 -0.917798 0
vn 0.435014 -0.900424 0
f 109//32 50//33 52//32 
v 295.368 48.4765 65.2
f 50//33 109//32 110//33 
f 100//23 52//32 54//23 
f 52//32 100//23 109//32 
v 309.705 75.713 63.2
vn 0.993155 0.116807 0
vn 0.996956 0.0779701 0
f 70//34 111//35 72//35 
v 309.427 78.5586 63.2
f 111//35 70//34 112//34 
vn 0.999239 -0.0390147 0
f 75//36 96//18 73//18 
v 309.873 67.1413 63.2
f 96//18 75//36 113//36 
vn 0.981024 -0.193887 0
vn 0.977054 -0.212991 0
f 67//37 97//38 61//38 
v 308.538 55.7936 65.2
vn 0.982058 -0.188581 0
f 97//38 67//37 114//39 
v 308.538 55.7936 63.2
vn 0.981544 -0.191235 0
f 114//39 67//37 115//40 
vn 0.259161 0.965834 0
f 91//16 26//41 25//16 
v 307.929 87 65.2
f 26//41 91//16 116//41 
vn 0.987841 0.155465 0
f 68//42 112//34 70//34 
v 309.037 81.3912 63.2
f 112//34 68//42 117//42 
f 110//33 48//26 50//33 
f 48//26 110//33 103//26 
vn 1 0 0
f 76//43 113//36 75//36 
v 309.928 70 63.2
f 113//36 76//43 118//43 
v 308.538 84.2064 63.2
vn 0.977054 0.212991 0
vn 0.981544 0.191235 0
vn 0.981024 0.193887 0
f 26//44 119//45 34//46 
v 308.538 84.2064 65.2
vn 0.982058 0.188581 0
f 119//45 26//44 120//47 
f 120//47 26//44 116//44 
vn 0.999239 0.0390147 0
f 74//48 118//43 76//43 
v 309.873 72.8587 63.2
f 118//43 74//48 121//48 
v 307.706 64.287 63.2
v 307.427 61.4414 63.2
vn -0.996954 0.0779931 0
vn -0.993151 0.116841 0
f 122//49 64//50 123//50 
f 64//50 122//49 65//49 
v 307.706 75.713 63.2
v 307.873 72.8587 63.2
vn -0.996954 -0.0779931 0
vn -0.999238 -0.0390263 0
f 124//51 32//52 125//52 
f 32//52 124//51 31//51 
v 307.427 78.5586 63.2
vn -0.993151 -0.116841 0
f 126//53 31//51 124//51 
f 31//51 126//53 30//53 
f 108//17 36//17 38//17 
v 254.929 38 65.2
f 36//17 108//17 127//17 
v 288.38 46.5428 63.2
vn -0.544104 0.839018 0
vn -0.508606 0.860999 0
f 128//54 47//55 45//54 
v 290.654 47.9509 63.2
f 47//55 128//54 129//55 
v 283.463 43 63.2
f 37//15 130//15 35//15 
v 257.929 43 61.7
f 130//15 37//15 131//15 
v 254.929 43 61.7
f 131//15 37//15 132//15 
v 257.929 43 63.2
f 130//15 131//15 133//15 
v 297.8 51.5896 63.2
vn -0.397048 0.917798 0
vn -0.358391 0.933572 0
f 134//56 55//57 53//56 
v 300.277 52.6001 63.2
f 55//57 134//56 135//57 
v 307.038 58.6088 63.2
v 306.538 55.7936 63.2
vn -0.987834 0.155511 0
vn -0.981013 0.193944 0
f 136//58 62//59 137//59 
f 62//59 136//58 63//58 
v 292.984 49.263 63.2
vn -0.472221 0.88148 0
vn -0.435014 0.900424 0
f 138//60 51//61 49//60 
v 295.368 50.4765 63.2
f 51//61 138//60 139//61 
v 286.166 45.0409 63.2
vn -0.578652 0.815574 0
f 140//62 45//54 43//62 
f 45//54 140//62 128//54 
v 307.929 70 63.2
vn -1 0 0
f 125//52 33//63 141//63 
f 33//63 125//52 32//52 
v 254.929 97 65.2
vn -0.993798 -0.111199 0
vn -0.985947 -0.167061 0
f 90//63 94//64 142//65 
f 94//64 90//63 2//63 
f 2//63 90//63 3//63 
v 307.873 67.1413 63.2
vn -0.999238 0.0390263 0
f 141//63 66//66 143//66 
f 66//66 141//63 33//63 
f 123//50 63//58 136//58 
f 63//58 123//50 64//50 
v 307.038 81.3912 63.2
vn -0.987834 -0.155511 0
f 144//67 30//53 126//53 
f 30//53 144//67 29//67 
vn -0.319108 0.947718 0
f 135//57 57//68 55//57 
v 302.793 53.5064 63.2
f 57//68 135//57 145//68 
f 143//66 65//49 122//49 
f 65//49 143//66 66//66 
f 129//55 49//60 47//55 
f 49//60 129//55 138//60 
vn -0.279268 0.960213 0
f 145//68 59//69 57//68 
v 305.346 54.3068 63.2
f 59//69 145//68 146//69 
vn -0.259162 0.965834 0
f 146//69 60//70 59//69 
v 306.268 54.5543 63.2
f 60//70 146//69 147//70 
vn -0.977041 0.213054 0
f 137//59 60//71 147//71 
f 60//71 137//59 62//59 
f 139//61 53//56 51//61 
f 53//56 139//61 134//56 
v 284.018 43.4479 63.2
vn -0.628567 0.777756 0
vn -0.612193 0.790708 0
f 35//72 148//73 41//73 
f 148//73 35//72 130//72 
f 148//73 43//62 41//73 
f 43//62 148//73 140//62 
v 259.368 79.1815 65.1997
v 259.789 74.5993 61.7
v 259.789 74.5993 65.1997
vn -0.992558 -0.121771 0
vn -0.998138 -0.060999 0
f 149//74 150//75 151//75 
v 259.368 79.1815 61.7
f 150//75 149//74 152//74 
v 288.38 93.4572 63.2
vn -0.544104 -0.839018 0
vn -0.578652 -0.815574 0
f 153//76 8//77 10//76 
v 286.166 94.9591 63.2
f 8//77 153//76 154//77 
f 154//77 7//4 8//77 
f 7//4 154//77 79//4 
v 257.693 88.2264 65.1997
v 258.668 83.7295 61.7
v 258.668 83.7295 65.1997
vn -0.970344 -0.24173 0
vn -0.983282 -0.182089 0
f 155//78 156//79 157//79 
v 257.693 88.2264 61.7
f 156//79 155//78 158//78 
v 305.346 85.6932 63.2
vn -0.279268 -0.960213 0
vn -0.319108 -0.947718 0
f 159//80 22//81 24//80 
v 302.793 86.4936 63.2
f 22//81 159//80 160//81 
f 157//79 152//74 149//74 
f 152//74 157//79 156//79 
v 254.929 43 65.2
vn -3.8147e-06 0 1
f 108//82 161//82 127//82 
v 256.445 47.3446 65.1997
f 161//82 108//82 162//82 
v 257.693 51.7736 65.1997
f 162//82 108//82 163//82 
v 258.668 56.2705 65.1997
f 163//82 108//82 164//82 
v 259.368 60.8185 65.1997
f 164//82 108//82 165//82 
v 259.789 65.4007 65.1997
f 165//82 108//82 166//82 
v 259.929 70 65.1997
f 166//82 108//82 167//82 
v 256.445 92.6554 65.1997
f 168//82 90//82 142//82 
f 90//82 168//82 83//82 
f 83//82 168//82 155//82 
f 83//82 155//82 157//82 
f 83//82 157//82 149//82 
f 83//82 149//82 151//82 
f 83//82 151//82 167//82 
f 83//82 167//82 108//82 
f 83//82 108//82 107//82 
f 83//82 107//82 84//82 
f 84//82 107//82 105//82 
f 84//82 105//82 89//82 
f 89//82 105//82 104//82 
f 89//82 104//82 85//82 
f 85//82 104//82 102//82 
f 85//82 102//82 86//82 
f 86//82 102//82 101//82 
f 86//82 101//82 87//82 
f 87//82 101//82 103//82 
f 87//82 103//82 88//82 
f 88//82 103//82 110//82 
f 88//82 110//82 77//82 
f 77//82 110//82 109//82 
f 77//82 109//82 78//82 
f 78//82 109//82 100//82 
f 78//82 100//82 81//82 
f 81//82 100//82 99//82 
f 81//82 99//82 82//82 
f 82//82 99//82 98//82 
f 82//82 98//82 91//82 
f 91//82 98//82 97//82 
f 91//82 97//82 116//82 
f 116//82 97//82 114//82 
f 116//82 114//82 120//82 
v 309.007 58.612 65.2
f 120//82 114//82 169//82 
v 309.007 81.388 65.2
f 120//82 169//82 170//82 
v 309.385 61.4446 65.2
f 170//82 169//82 171//82 
v 309.385 78.5554 65.2
f 170//82 171//82 172//82 
v 309.656 64.2896 65.2
f 172//82 171//82 173//82 
v 309.656 75.7104 65.2
f 172//82 173//82 174//82 
v 309.818 67.1427 65.2
f 174//82 173//82 175//82 
v 309.818 72.8573 65.2
f 174//82 175//82 176//82 
v 309.873 70 65.2
f 176//82 175//82 177//82 
v 256.445 92.6554 61.7
vn -0.953791 -0.300469 0
vn -0.953791 -0.30047 0
f 142//65 178//83 168//84 
f 178//83 142//65 94//64 
v 295.368 89.5235 63.2
vn -0.435014 -0.900424 0
vn -0.472221 -0.88148 0
f 179//85 14//86 16//85 
v 292.984 90.737 63.2
f 14//86 179//85 180//86 
v 290.654 92.0491 63.2
vn -0.508606 -0.860999 0
f 181//87 10//76 12//87 
f 10//76 181//87 153//76 
v 306.538 84.2064 63.2
vn -0.981013 -0.193944 0
f 182//88 29//67 144//67 
f 29//67 182//88 28//88 
f 180//86 12//87 14//86 
f 12//87 180//86 181//87 
f 168//84 158//78 155//78 
f 158//78 168//84 178//83 
v 306.268 85.4457 63.2
vn -0.259162 -0.965834 0
f 183//89 24//80 27//89 
f 24//80 183//89 159//80 
vn -0.358391 -0.933572 0
f 160//81 20//90 22//81 
v 300.277 87.3999 63.2
f 20//90 160//81 184//90 
vn -0.977041 -0.213054 0
f 183//91 28//88 182//88 
f 28//88 183//91 27//91 
vn -0.397048 -0.917798 0
f 184//90 18//92 20//90 
v 297.8 88.4104 63.2
f 18//92 184//90 185//92 
f 185//92 16//85 18//92 
f 16//85 185//92 179//85 
v 258.668 56.2705 61.7
vn -0.992558 0.121771 0
vn -0.983282 0.182089 0
f 165//93 186//94 164//94 
v 259.368 60.8185 61.7
f 186//94 165//93 187//93 
v 261.668 83.7295 61.7
v 262.368 79.1815 63.2
v 262.368 79.1815 61.7
vn 0.983282 0.182089 0
vn 0.992558 0.121771 0
f 188//95 189//96 190//96 
v 261.668 83.7295 63.2
f 189//96 188//95 191//95 
v 262.789 74.5993 63.2
v 262.789 74.5993 61.7
vn 0.998138 0.0609991 0
f 190//96 192//97 193//97 
f 192//97 190//96 189//96 
v 256.445 47.3446 61.7
vn -0.970344 0.241729 0
vn -0.953791 0.300469 0
vn -0.953791 0.30047 0
f 163//98 194//99 162//100 
v 257.693 51.7736 61.7
f 194//99 163//98 195//98 
v 262.929 70 63.2
v 262.929 70 61.7
f 193//97 196//43 197//43 
f 196//43 193//97 192//97 
vn -0.993798 0.111199 0
vn -0.985947 0.167061 0
f 162//100 132//101 161//102 
f 132//101 162//100 194//99 
f 161//102 36//63 127//63 
f 36//63 161//102 37//63 
f 37//63 161//102 132//101 
f 164//94 195//98 163//98 
f 195//98 164//94 186//94 
v 259.789 65.4007 61.7
vn -0.998138 0.060999 0
f 167//63 198//103 166//103 
v 259.929 70 61.7
f 198//103 167//63 199//63 
f 166//103 187//93 165//93 
f 187//93 166//103 198//103 
v 259.445 92.6554 63.2
v 259.445 92.6554 61.7
vn 0.944179 0.329433 0
vn 0.953791 0.300469 0
f 92//104 200//105 201//105 
f 200//105 92//104 93//104 
v 260.693 88.2264 63.2
v 260.693 88.2264 61.7
vn 0.970344 0.241729 0
f 201//105 202//106 203//106 
f 202//106 201//105 200//105 
f 203//106 191//95 188//95 
f 191//95 203//106 202//106 
v 262.789 65.4007 63.2
v 262.789 65.4007 61.7
vn 0.998138 -0.0609991 0
f 197//43 204//107 205//107 
f 204//107 197//43 196//43 
v 262.368 60.8185 63.2
v 262.368 60.8185 61.7
vn 0.992558 -0.121771 0
f 205//107 206//108 207//108 
f 206//108 205//107 204//107 
f 92//1 178//1 94//1 
f 178//1 92//1 158//1 
f 158//1 92//1 156//1 
f 156//1 92//1 201//1 
f 156//1 201//1 152//1 
f 152//1 201//1 150//1 
f 150//1 201//1 203//1 
f 150//1 203//1 199//1 
f 194//1 131//1 132//1 
f 131//1 194//1 195//1 
f 131//1 195//1 186//1 
v 259.445 47.3446 61.7
f 131//1 186//1 208//1 
f 208//1 186//1 187//1 
f 208//1 187//1 198//1 
v 260.693 51.7736 61.7
f 208//1 198//1 209//1 
f 209//1 198//1 199//1 
f 209//1 199//1 203//1 
f 209//1 203//1 188//1 
v 261.668 56.2705 61.7
f 209//1 188//1 210//1 
f 210//1 188//1 207//1 
f 207//1 188//1 190//1 
f 207//1 190//1 193//1 
f 207//1 193//1 205//1 
f 205//1 193//1 197//1 
f 151//75 199//63 167//63 
f 199//63 151//75 150//75 
v 309.007 81.388 63.2
vn 0.988949 0.148255 0
f 119//45 170//109 211//109 
f 170//109 119//45 120//47 
v 309.873 70 63.2
v 309.818 67.1427 63.2
vn 0.99928 -0.0379362 0
f 212//43 175//110 213//110 
f 175//110 212//43 177//43 
v 309.385 78.5554 63.2
vn 0.993528 0.11359 0
f 211//109 172//111 214//111 
f 172//111 211//109 170//109 
v 261.668 56.2705 63.2
vn 0.983282 -0.182089 0
f 207//108 215//112 210//112 
f 215//112 207//108 206//108 
f 72//35 121//48 74//48 
f 121//48 72//35 111//35 
v 309.007 58.612 63.2
vn 0 0 1
f 106//113 216//113 115//113 
v 309.385 61.4446 63.2
f 216//113 106//113 217//113 
f 217//113 106//113 95//113 
v 309.656 64.2896 63.2
f 217//113 95//113 218//113 
f 218//113 95//113 96//113 
f 218//113 96//113 213//113 
f 213//113 96//113 113//113 
f 213//113 113//113 212//113 
f 212//113 113//113 118//113 
f 212//113 118//113 121//113 
f 211//113 117//113 119//113 
f 117//113 211//113 214//113 
f 117//113 214//113 112//113 
v 309.656 75.7104 63.2
f 112//113 214//113 219//113 
f 112//113 219//113 111//113 
v 309.818 72.8573 63.2
f 111//113 219//113 220//113 
f 111//113 220//113 121//113 
f 121//113 220//113 212//113 
f 69//29 115//40 67//37 
f 115//40 69//29 106//29 
vn 0.997122 -0.0758177 0
f 213//110 173//114 218//114 
f 173//114 213//110 175//110 
vn 0.988949 -0.148255 0
f 216//115 114//39 115//40 
f 114//39 216//115 169//115 
vn 0.993528 -0.11359 0
f 217//116 169//115 216//115 
f 169//115 217//116 171//116 
v 259.445 47.3446 63.2
vn 0.970344 -0.24173 0
vn 0.953791 -0.300469 0
f 209//117 221//118 208//118 
v 260.693 51.7736 63.2
f 221//118 209//117 222//117 
f 34//46 117//42 68//42 
f 117//42 34//46 119//45 
vn 0.99928 0.0379362 0
f 220//119 177//43 212//43 
f 177//43 220//119 176//119 
f 218//114 171//116 217//116 
f 171//116 218//114 173//114 
f 210//112 222//117 209//117 
f 222//117 210//112 215//112 
vn 0.997122 0.0758177 0
f 219//120 176//119 220//119 
f 176//119 219//120 174//120 
vn 0.944179 -0.329433 0
f 208//118 133//121 131//121 
f 133//121 208//118 221//118 
f 214//111 174//120 219//120 
f 174//120 214//111 172//111 
f 80//1 200//1 93//1 
f 200//1 80//1 202//1 
f 202//1 80//1 191//1 
f 191//1 80//1 189//1 
f 189//1 80//1 192//1 
f 192//1 80//1 196//1 
f 221//1 130//1 133//1 
f 130//1 221//1 222//1 
f 130//1 222//1 215//1 
f 130//1 215//1 206//1 
f 130//1 206//1 204//1 
f 130//1 204//1 196//1 
f 130//1 196//1 80//1 
f 130//1 80//1 79//1 
f 130//1 79//1 148//1 
f 148//1 79//1 154//1 
f 148//1 154//1 140//1 
f 140//1 154//1 153//1 
f 140//1 153//1 128//1 
f 128//1 153//1 181//1 
f 128//1 181//1 129//1 
f 129//1 181//1 180//1 
f 129//1 180//1 138//1 
f 138//1 180//1 179//1 
f 138//1 179//1 139//1 
f 139//1 179//1 185//1 
f 139//1 185//1 134//1 
f 134//1 185//1 184//1 
f 134//1 184//1 135//1 
f 135//1 184//1 160//1 
f 135//1 160//1 145//1 
f 145//1 160//1 159//1 
f 145//1 159//1 146//1 
f 146//1 159//1 183//1 
f 146//1 183//1 147//1 
f 147//1 183//1 182//1 
f 147//1 182//1 137//1 
f 137//1 182//1 144//1 
f 137//1 144//1 136//1 
f 136//1 144//1 126//1 
f 136//1 126//1 123//1 
f 123//1 126//1 122//1 
f 122//1 126//1 124//1 
f 122//1 124//1 143//1 
f 143//1 124//1 125//1 
f 143//1 125//1 141//1 
